<?xml version="1.0" standalone="no"?><svg xmlns="http://www.w3.org/2000/svg" viewBox="0 0 1440 320"><path fill="#000" fill-opacity="1" d="M0,128L30,160C60,192,120,256,180,266.7C240,277,300,235,360,208C420,181,480,171,540,160C600,149,660,139,720,128C780,117,840,107,900,133.3C960,160,1020,224,1080,229.3C1140,235,1200,181,1260,170.7C1320,160,1380,192,1410,208L1440,224L1440,320L1410,320C1380,320,1320,320,1260,320C1200,320,1140,320,1080,320C1020,320,960,320,900,320C840,320,780,320,720,320C660,320,600,320,540,320C480,320,420,320,360,320C300,320,240,320,180,320C120,320,60,320,30,320L0,320Z"></path></svg>