<?xml version="1.0" standalone="no"?><svg xmlns="http://www.w3.org/2000/svg" viewBox="0 0 1440 320"><path fill="#000" fill-opacity="1" d="M0,64L16,58.7C32,53,64,43,96,64C128,85,160,139,192,133.3C224,128,256,64,288,42.7C320,21,352,43,384,53.3C416,64,448,64,480,69.3C512,75,544,85,576,112C608,139,640,181,672,170.7C704,160,736,96,768,96C800,96,832,160,864,170.7C896,181,928,139,960,122.7C992,107,1024,117,1056,154.7C1088,192,1120,256,1152,234.7C1184,213,1216,107,1248,85.3C1280,64,1312,128,1344,128C1376,128,1408,64,1424,32L1440,0L1440,320L1424,320C1408,320,1376,320,1344,320C1312,320,1280,320,1248,320C1216,320,1184,320,1152,320C1120,320,1088,320,1056,320C1024,320,992,320,960,320C928,320,896,320,864,320C832,320,800,320,768,320C736,320,704,320,672,320C640,320,608,320,576,320C544,320,512,320,480,320C448,320,416,320,384,320C352,320,320,320,288,320C256,320,224,320,192,320C160,320,128,320,96,320C64,320,32,320,16,320L0,320Z"></path></svg>