<?xml version="1.0" standalone="no"?><svg xmlns="http://www.w3.org/2000/svg" viewBox="0 0 1440 320"><path fill="#000" fill-opacity="1" d="M0,96L30,101.3C60,107,120,117,180,138.7C240,160,300,192,360,192C420,192,480,160,540,165.3C600,171,660,213,720,224C780,235,840,213,900,176C960,139,1020,85,1080,106.7C1140,128,1200,224,1260,256C1320,288,1380,256,1410,240L1440,224L1440,320L1410,320C1380,320,1320,320,1260,320C1200,320,1140,320,1080,320C1020,320,960,320,900,320C840,320,780,320,720,320C660,320,600,320,540,320C480,320,420,320,360,320C300,320,240,320,180,320C120,320,60,320,30,320L0,320Z"></path></svg>