<?xml version="1.0" standalone="no"?><svg xmlns="http://www.w3.org/2000/svg" viewBox="0 0 1440 320"><path fill="#000" fill-opacity="1" d="M0,256L16,218.7C32,181,64,107,96,101.3C128,96,160,160,192,186.7C224,213,256,203,288,197.3C320,192,352,192,384,176C416,160,448,128,480,144C512,160,544,224,576,256C608,288,640,288,672,250.7C704,213,736,139,768,101.3C800,64,832,64,864,74.7C896,85,928,107,960,149.3C992,192,1024,256,1056,282.7C1088,309,1120,299,1152,293.3C1184,288,1216,288,1248,272C1280,256,1312,224,1344,197.3C1376,171,1408,149,1424,138.7L1440,128L1440,320L1424,320C1408,320,1376,320,1344,320C1312,320,1280,320,1248,320C1216,320,1184,320,1152,320C1120,320,1088,320,1056,320C1024,320,992,320,960,320C928,320,896,320,864,320C832,320,800,320,768,320C736,320,704,320,672,320C640,320,608,320,576,320C544,320,512,320,480,320C448,320,416,320,384,320C352,320,320,320,288,320C256,320,224,320,192,320C160,320,128,320,96,320C64,320,32,320,16,320L0,320Z"></path></svg>