<?xml version="1.0" standalone="no"?><svg xmlns="http://www.w3.org/2000/svg" viewBox="0 0 1440 320"><path fill="#000" fill-opacity="1" d="M0,32L24,37.3C48,43,96,53,144,69.3C192,85,240,107,288,122.7C336,139,384,149,432,144C480,139,528,117,576,117.3C624,117,672,139,720,122.7C768,107,816,53,864,74.7C912,96,960,192,1008,234.7C1056,277,1104,267,1152,224C1200,181,1248,107,1296,96C1344,85,1392,139,1416,165.3L1440,192L1440,320L1416,320C1392,320,1344,320,1296,320C1248,320,1200,320,1152,320C1104,320,1056,320,1008,320C960,320,912,320,864,320C816,320,768,320,720,320C672,320,624,320,576,320C528,320,480,320,432,320C384,320,336,320,288,320C240,320,192,320,144,320C96,320,48,320,24,320L0,320Z"></path></svg>